<?xml version="1.0" encoding="UTF-8"?>
<!DOCTYPE svg PUBLIC "-//W3C//DTD SVG 1.1//EN" "http://www.w3.org/Graphics/SVG/1.1/DTD/svg11.dtd">
<svg xmlns="http://www.w3.org/2000/svg" version="1.1" width="64px" height="64px" style="shape-rendering:geometricPrecision; text-rendering:geometricPrecision; image-rendering:optimizeQuality; fill-rule:evenodd; clip-rule:evenodd" xmlns:xlink="http://www.w3.org/1999/xlink">
<g><path style="opacity:0.892" fill="#000000" d="M 27.5,-0.5 C 30.1667,-0.5 32.8333,-0.5 35.5,-0.5C 39.2407,2.55598 40.4073,6.55598 39,11.5C 37.4714,14.516 34.9714,15.8494 31.5,15.5C 24.269,14.7363 21.769,10.7363 24,3.5C 24.6897,1.64977 25.8564,0.316435 27.5,-0.5 Z"/></g>
<g><path style="opacity:0.892" fill="#000000" d="M 27.5,23.5 C 38.8598,22.71 42.1931,27.5434 37.5,38C 26.9641,41.997 22.4641,38.497 24,27.5C 24.6897,25.6498 25.8564,24.3164 27.5,23.5 Z"/></g>
<g><path style="opacity:0.892" fill="#000000" d="M 35.5,63.5 C 32.8333,63.5 30.1667,63.5 27.5,63.5C 23.7593,60.444 22.5927,56.444 24,51.5C 25.5286,48.484 28.0286,47.1506 31.5,47.5C 38.731,48.2637 41.231,52.2637 39,59.5C 38.3103,61.3502 37.1436,62.6836 35.5,63.5 Z"/></g>
</svg>
