<?xml version="1.0" encoding="UTF-8"?>
<!DOCTYPE svg PUBLIC "-//W3C//DTD SVG 1.1//EN" "http://www.w3.org/Graphics/SVG/1.1/DTD/svg11.dtd">
<svg xmlns="http://www.w3.org/2000/svg" version="1.1" width="64px" height="64px" style="shape-rendering:geometricPrecision; text-rendering:geometricPrecision; image-rendering:optimizeQuality; fill-rule:evenodd; clip-rule:evenodd" xmlns:xlink="http://www.w3.org/1999/xlink">
<g><path style="opacity:0.844" fill="#000000" d="M 17.5,-0.5 C 22.5,-0.5 27.5,-0.5 32.5,-0.5C 48.382,5.93003 54.2154,17.5967 50,34.5C 48.9605,36.7463 47.7938,38.913 46.5,41C 52.0353,46.7029 57.7019,52.2029 63.5,57.5C 63.5,59.5 63.5,61.5 63.5,63.5C 61.5,63.5 59.5,63.5 57.5,63.5C 52.2029,57.7019 46.7029,52.0353 41,46.5C 27.986,54.0655 15.986,52.7322 5,42.5C 2.8703,39.2333 1.03697,35.9 -0.5,32.5C -0.5,27.5 -0.5,22.5 -0.5,17.5C 3.16667,9.16667 9.16667,3.16667 17.5,-0.5 Z M 20.5,6.5 C 34.1879,5.36019 42.1879,11.5269 44.5,25C 42.6667,36.1667 36.1667,42.6667 25,44.5C 8.95524,40.7439 3.62191,31.0772 9,15.5C 12.183,11.4622 16.0164,8.46219 20.5,6.5 Z"/></g>
</svg>
