<?xml version="1.0" encoding="utf-8"?>
<!-- Generator: Adobe Illustrator 25.2.0, SVG Export Plug-In . SVG Version: 6.00 Build 0)  -->
<svg version="1.1" id="Layer_1" xmlns="http://www.w3.org/2000/svg" xmlns:xlink="http://www.w3.org/1999/xlink" x="0px" y="0px"
	 viewBox="0 0 116.02 35.32" style="enable-background:new 0 0 116.02 35.32;" xml:space="preserve">
<style type="text/css">
	.st0{fill-rule:evenodd;clip-rule:evenodd;fill:#D91F26;}
	.st1{fill-rule:evenodd;clip-rule:evenodd;fill:#2B2D39;}
	.st2{fill:#00A8CC;stroke:#00A8CC;stroke-width:0.75;stroke-miterlimit:10;}
	.st3{font-family:'Roboto-Regular';}
	.st4{font-size:12px;}
</style>
<g>
	<path class="st0" d="M24.01,25.06L24.01,25.06c0.55,0,1-0.45,1-1v-12c0-0.55-0.45-1-1-1h0c-0.55,0-1,0.45-1,1v12
		C23.01,24.62,23.46,25.06,24.01,25.06z"/>
	<path class="st0" d="M19.69,27.89L19.69,27.89c0.55,0,1-0.63,1-1.4V9.64c0-0.78-0.45-1.4-1-1.4h0c-0.55,0-1,0.63-1,1.4v16.85
		C18.69,27.26,19.14,27.89,19.69,27.89z"/>
	<path class="st0" d="M15.37,30.47L15.37,30.47c0.55,0,1-0.79,1-1.77V7.43c0-0.98-0.45-1.77-1-1.77h0c-0.55,0-1,0.79-1,1.77V28.7
		C14.37,29.67,14.82,30.47,15.37,30.47z"/>
	<path class="st0" d="M6.73,12.3L6.73,12.3c-0.55,0-1,0.37-1,0.82v9.89c0,0.46,0.45,0.82,1,0.82h0c0.55,0,1-0.37,1-0.82v-9.89
		C7.73,12.66,7.29,12.3,6.73,12.3z"/>
	<path class="st0" d="M11.05,8.23L11.05,8.23c-0.55,0-1,0.63-1,1.4v16.85c0,0.78,0.45,1.4,1,1.4h0c0.55,0,1-0.63,1-1.4V9.64
		C12.05,8.86,11.61,8.23,11.05,8.23z"/>
	<path class="st0" d="M28.33,26.9L28.33,26.9c-0.55,0-1-0.56-1-1.26V10.49c0-0.7,0.45-1.26,1-1.26h0c0.55,0,1,0.56,1,1.26v15.14
		C29.33,26.33,28.88,26.9,28.33,26.9z"/>
</g>
<g>
	<path class="st1" d="M31.99,28.74c0,0.96,0.77,1.73,1.73,1.73h74.86c0.77,0,1.4-0.6,1.4-1.34V7c0-0.74-0.63-1.34-1.4-1.34H34.64
		h-0.92c-0.96,0-1.73,0.77-1.73,1.73v0.85L31.99,28.74z"/>
	<text transform="matrix(1.0127 0 0 1 35.0421 22.1663)" class="st2 st3 st4">Speech2Tech</text>
</g>
<path class="st1" d="M34.98,30.47"/>
</svg>
